<?xml version="1.0" encoding="UTF-8"?>
<svg width="837" height="257" version="1.1" viewBox="0 0 837 257" xmlns="http://www.w3.org/2000/svg" xmlns:cc="http://creativecommons.org/ns#" xmlns:dc="http://purl.org/dc/elements/1.1/" xmlns:rdf="http://www.w3.org/1999/02/22-rdf-syntax-ns#">
 <metadata>
  <rdf:RDF>
   <cc:Work rdf:about="">
    <dc:format>image/svg+xml</dc:format>
    <dc:type rdf:resource="http://purl.org/dc/dcmitype/StillImage"/>
    <dc:title/>
   </cc:Work>
  </rdf:RDF>
 </metadata>
 <g transform="translate(-12.804 76.856)">
  <path d="m390.7 146.4c-11.084-3.6339-19.711-11.033-24.672-21.161-2.1951-4.4811-2.6842-7.1795-2.6944-14.864-0.011-8.211 0.39453-10.192 3.2304-15.789 8.7799-17.328 28.688-25.537 47.831-19.723 14.347 4.3578 23.237 15.73 24.339 31.136l0.55018 7.6895h-51.385l0.7035 3.5175c1.4687 7.3434 7.9225 11.303 17.316 10.624 4.7166-0.34117 7.3424-1.2214 10.243-3.4338 2.1452-1.6362 4.3639-2.975 4.9303-2.975 0.56644 0 4.5755 1.7738 8.909 3.9418 8.8907 4.4478 8.9236 4.6866 1.6182 11.741-6.7622 6.5302-15.527 9.9452-26.742 10.42-6.1565 0.2605-11.166-0.13644-14.176-1.1232zm23.985-48.027c0-3.3379-4.2107-7.72-8.5762-8.9254-7.5976-2.0978-16.83 2.7983-16.83 8.9254 0 1.8912 1.0426 2.0602 12.703 2.0602 11.66 0 12.703-0.16909 12.703-2.0602zm57.992 47.568c-10.829-3.7619-18.287-10.395-23.841-21.206-3.848-7.4896-3.723-20.396 0.28029-28.937 6.0394-12.884 18.839-21.714 32.94-22.723 10.822-0.77434 25.417 3.308 25.417 7.1096 0 0.87559-1.6057 4.5831-3.5683 8.2389-3.1895 5.9413-3.8637 6.5805-6.3515 6.0212-8.8609-1.9918-12.741-1.8346-17.082 0.69205-5.7562 3.3506-8.601 8.3906-8.601 15.238s2.8448 11.887 8.601 15.238c4.3496 2.5318 8.1973 2.6841 17.152 0.67864 2.6236-0.58757 3.1397-0.0398 6.4065 6.7992 1.9542 4.091 3.3065 8.0807 3.0052 8.866-0.84432 2.2003-15.05 5.9794-22.326 5.9391-3.5797-0.0199-8.994-0.89943-12.032-1.9547zm65.383-0.55709c-8.7458-3.0642-16.358-9.7838-21.352-18.849-2.7715-5.0306-3.1228-6.7812-3.1318-15.608-0.0131-12.952 2.6301-19.161 11.754-27.608 8.6262-7.9863 18.109-11.146 30.344-10.112 19.105 1.615 31.368 13.698 33.128 32.644l0.72843 7.8377h-25.565c-24.623 0-25.565 0.0795-25.565 2.1572 0 3.791 2.4802 7.7716 6.3216 10.146 5.4473 3.3666 15.973 2.5956 21.434-1.57 2.1637-1.6503 4.4036-3.0006 4.9777-3.0006 1.8482 0 15.186 7.3387 15.601 8.5841 0.76997 2.3099-7.7549 10.199-14.733 13.634-5.8505 2.8802-8.6595 3.5386-16.726 3.9206-8.1528 0.38604-10.892 0.0399-17.217-2.1762zm26.852-47.011c0-3.3379-4.2106-7.72-8.5762-8.9254-7.4611-2.0601-14.124 1.1069-16.726 7.95l-1.1542 3.0357h13.228c12.173 0 13.228-0.16435 13.228-2.0602zm95.7 47.94c-11.061-3.943-14.029-10.993-14.784-35.11l-0.54414-17.398h-9.6776v-18.778h9.8714l0.62242-25.958 23.678-0.62633 0.31152 13.016 0.31154 13.016 14.912 0.65324v18.577l-14.912 0.65324 0.0636 13.991c0.074 16.294 0.71218 17.777 7.4299 17.269l4.3712-0.3305 2.6066 8.7016c1.4336 4.7858 2.3465 9.1223 2.0287 9.6366-1.0017 1.6208-11.717 4.3084-16.977 4.2578-2.7755-0.0266-6.9665-0.73298-9.3132-1.5696zm54.718-0.0212c-13.629-4.2532-22.826-16.628-24.157-32.503-1.327-15.829 6.4916-30.406 20.077-37.432 4.567-2.3619 7.1034-2.8781 14.382-2.9274 7.6813-0.05203 9.7018 0.37348 15.451 3.254 3.6377 1.8226 6.993 3.4795 7.4561 3.682 0.46318 0.20249 0.84213-0.93276 0.84213-2.5228v-2.8909l23.749 0.62704v69.59l-23.749 0.62704v-3.3512c0-4.0547-0.28284-4.0904-4.8441-0.61134-7.6689 5.8493-19.139 7.5999-29.207 4.4577zm28.09-22.754c12.133-11.335 4.3946-30.988-11.562-29.362-8.8221 0.89872-14.765 7.3532-14.765 16.036 0 10.799 6.9201 17.237 17.661 16.432 4.2134-0.3161 6.5922-1.1686 8.6657-3.1056zm56.774 22.812c-5.479-1.5245-13.858-5.5506-14.832-7.1267-0.50628-0.81919 6.5749-14.333 8.5404-16.298 0.29999-0.29998 3.2053 0.92117 6.4563 2.7137 7.5838 4.1816 11.554 5.0652 15.47 3.4431 5.4978-2.2772 3.4685-8.3564-3.4836-10.436-5.3654-1.6049-13.609-6.3006-17.223-9.8099-9.6743-9.3956-6.0679-25.928 7.0624-32.376 5.6323-2.7659 7.4562-3.0887 17.34-3.0699 11.016 0.02099 18.145 1.3745 21.969 4.1707 1.9225 1.4058 1.8495 1.8111-1.5458 8.5833-1.96 3.9093-3.7327 7.2943-3.9392 7.5223-0.20656 0.22794-2.3945-0.39341-4.8622-1.3808-5.6618-2.2654-15.832-2.3858-17.639-0.20888-2.402 2.8942 0.52508 5.7945 8.4908 8.4131 9.3367 3.0693 16.232 7.0088 18.951 10.827 7.4534 10.467 3.9121 26.6-7.0371 32.059-9.112 4.5428-23.515 5.8131-33.718 2.9739zm-741.78-0.7568c-4.7925-1.3087-10.238-7.0986-11.667-12.405-0.95953-3.5634-0.88987-5.6461 0.31919-9.5439 1.3058-4.2098 3.1716-6.3368 11.987-13.665 15.282-12.704 48.738-42.05 51.372-45.061l2.2699-2.5947-9.7061-9.4982c-9.3058-9.1064-9.7823-9.414-11.554-7.4561-2.6985 2.9819-11.627 2.7085-18.671-0.57165-5.9499-2.7706-8.3607-5.3086-30.408-32.012-22.77-27.579-22.201-25.805-11.524-35.904 3.949-3.7349 7.18-7.2548 7.18-7.8221s0.96872-1.3388 2.1527-1.7145c1.184-0.37578 2.4362-1.5765 2.7828-2.6683 0.82722-2.6063 5.7445-4.7888 8.7229-3.8716 3.0844 0.94986 48.846 37.589 53.338 42.705 4.8926 5.5724 6.3129 10.723 5.5906 20.273l-0.60821 8.0419 17.571 16.787 2.9995-2.1728c1.6497-1.195 5.982-5.2089 9.6272-8.9198l6.6277-6.747 0.1024-10.183c0.16685-16.59 5.3525-29.204 16.468-40.056 14.102-13.768 38.267-19.446 52.167-12.258 12.549 6.4893 14.749 27.076 5.0332 47.089-3.8393 7.9081-16.623 20.592-24.825 24.632-8.675 4.2728-20.667 6.6152-29.192 5.7023-6.2011-0.66407-6.531 0.3128-8.0726 1.5585-1.0382 0.84845-7.1672 6.7195-9.1047 8.4245l-4.4855 3.7192c-1.0958 1.6091-1.488 3.81 8.0871 12.346 4.4078 3.9296 9.5434 8.5369 11.412 10.239 1.8689 1.7016 12 10.353 22.513 19.226 10.513 8.8726 19.91 17.67 20.882 19.55 3.686 7.128 1.2443 17.011-5.4321 21.988-4.3635 3.2524-13.678 3.7256-18.138 0.92155-1.9009-1.1952-8.3524-8.0577-14.337-15.25-12.559-15.094-41.165-47.872-41.779-47.872-0.442 0-29.308 32.604-36.217 40.907-2.2582 2.7138-6.9152 8.4137-10.349 12.666-3.4338 4.2528-7.5511 8.5404-9.1495 9.528-3.6979 2.2848-9.6871 3.1164-13.987 1.9422zm8.6634-6.4202c1.4834-0.56399 8.8458-8.3929 16.361-17.398 11.048-13.237 31.558-36.794 42.01-48.249 1.0301-1.129 2.3636-1.8746 2.9634-1.6569 1.8842 0.6838 27.205 29.488 52.298 59.492 5.4153 6.4753 6.4548 7.2131 10.592 7.5176 5.6554 0.41623 8.5406-1.042 10.833-5.4753 3.5936-6.9494 2.0121-9.3724-15.862-24.302-13.078-10.924-33.849-29.102-49.287-43.135-1.7648-1.6042-1.8688-2.1879-0.65148-3.6546 0.79677-0.96006 2.4942-2.3146 2.4942-2.3146s1.0729-0.83653 2.2454-2.084c1.1918-1.268 4.6311-5.4506 4.6311-5.4506 7.2525-8.0928 4.9302-5.8864 8.0555-9.3132l5.3981-5.919 6.2938 1.4085c15.807 3.5374 36.602-6.1164 47.004-21.821 9.9622-15.04 10.192-37.637 0.43457-42.683-16.438-8.5003-44.372 3.7023-54.396 23.762-5.2659 10.538-6.9771 24.359-3.9621 32 0.51749 1.3115-1.9341 4.3728-8.8292 11.025-4.3961 4.1606-13.958 11.597-13.958 11.597l-2.6061 2.469-1.5068 2.3339-1.6947-2.5001-2.1506-2.4311s-21.706-18.796-21.706-20.146c0-0.28008 0.77252-3.1666 1.7167-6.4145 2.3538-8.0967 0.76992-13.887-5.4272-19.841-5.2283-5.0229-47.65-39.214-48.654-39.214-2.8713 0 2.1436 5.6016 19.779 22.092 18.218 17.036 22.845 22.005 19.37 20.804-1.1513-0.39806-18.775-15.029-34.724-28.827-6.7353-5.827-10.273-8.2145-11.039-7.4492-1.212 1.212-1.6555 0.70554 23.992 27.396 8.3451 8.6843 14.874 16.273 14.509 16.864-0.71963 1.1644-3.1399-0.88786-27.111-22.988-14.208-13.099-18.706-16.424-18.681-13.808 0.0042 0.45565 8.4545 10.489 18.778 22.295 10.324 11.807 18.771 21.873 18.771 22.368 0 2.1167-2.2642 0.48195-8.3141-6.0024-13.162-14.107-32.948-33.967-33.842-33.967-2.4399 0 0.52818 4.13 19.174 26.68 13.964 16.887 21.368 24.954 24.257 26.428 4.9577 2.5292 12.765 2.7464 18.131 0.50432 2.1294-0.88971 2.6948-0.96982 3.2132-0.55231l1.3398 1.0793c2.1536 1.7348 11.393 11.442 11.393 11.442l2.7304 2.9042 5.3612 5.6544 1.9524 2.0288s2.1011 1.6369 2.1011 1.9348c0 1.2406-30.418 28.259-55.56 49.351-6.4343 5.3978-11.975 10.534-12.312 11.413-2.0035 5.2211 1.2261 12.587 6.443 14.695 3.122 1.2614 4.4539 1.2714 7.6476 0.0571zm202.9-50.428v-56.976l25.682 0.40316c23.042 0.36173 26.278 0.64384 31.481 2.7444l5.7992 2.3412v-53.914h6.0754c4.6639 0 6.0754 0.38494 6.0754 1.6569 0 1.8602 1.7267 2.2268 2.743 0.58232 1.1178-1.8086 9.5391-3.5651 13.516-2.8191 5.3227 0.99854 12.169 7.5416 13.651 13.047 3.387 12.578-5.1006 24.928-17.207 25.036-2.4302 0.02172-5.8422-0.70306-7.5824-1.6106-1.7402-0.90756-3.6042-1.6501-4.1423-1.6501-0.53808 0-0.97834 4.7222-0.97834 10.494v10.494h-10.199l4.102 4.5404c5.2919 5.8575 7.2094 10.594 7.972 19.691 1.1757 14.023-4.7632 26.175-15.96 32.656-3.1486 1.8226-5.7413 3.6619-5.7616 4.0874-0.0203 0.42545 6.3033 8.3786 14.052 17.674 7.7491 9.2951 16.246 19.51 18.881 22.699l4.792 5.7992-32.792-2e-3 -16.569-21.532c-9.113-11.843-16.942-21.536-17.398-21.539-0.45566-4e-3 -0.82846 9.6863-0.82846 21.533v21.54h-25.406zm43.743-8.5197c4.1112-2.126 5.9643-6.0053 5.9643-12.486 0-10.017-5.9014-14.805-18.248-14.805h-6.053v14.176c0 7.7967 0.3728 14.56 0.82846 15.029 1.312 1.351 13.844-0.01878 17.509-1.9136zm45.829-72.438c3.6135-2.9261 3.5456-9.5643-0.12826-12.539-5.1512-4.1712-14.33-0.13908-14.33 6.2949 0 1.3696 1.0302 3.7999 2.2894 5.4007 2.7857 3.5414 8.3602 3.9279 12.169 0.84359zm240.71 102.59v-35.348h24.301v70.695h-24.301zm5.2608-52.541c-6.3407-3.4404-8.6004-15.015-4.0586-20.788 6.3276-8.0442 16.674-8.0442 23.002 0 2.7876 3.5438 3.0898 11.172 0.63114 15.926-3.1481 6.0879-12.866 8.5019-19.574 4.8624zm-223.97-46.819v-27.67h5.9572c4.3364 0 6.1342 0.46128 6.6078 1.6954 0.58404 1.522 0.91423 1.5227 3.2276 0.0068 8.0728-5.2895 20.005-1.8702 24.744 7.0904 4.5795 8.66 2.2284 20.169-5.201 25.459-4.6966 3.3443-12.936 4.171-17.731 1.779-1.9711-0.98327-3.7373-1.7878-3.9249-1.7878-0.18762 0-0.48406 4.5979-0.65874 10.218l-0.31761 10.218-12.703 0.66256zm27.113-3.8711c1.4912-1.4912 2.7113-3.9992 2.7113-5.5733 0-3.8874-4.5987-8.2846-8.6643-8.2846-5.0908 0-8.3732 3.3429-8.2304 8.382 0.21985 7.7557 8.6491 11.01 14.183 5.4758zm49.548 11.653c-6.3321-2.8757-9.6165-7.9075-10.172-15.584-0.53952-7.4587 2.2293-13.892 7.6356-17.742 4.5696-3.2538 12.758-4.0562 17.32-1.6972 1.893 0.97893 3.7151 1.7799 4.0491 1.7799 0.33394 0 0.60716-5.9649 0.60716-13.255v-13.255h13.255v60.754h-6.6277c-4.9268 0-6.6277-0.39466-6.6277-1.5378 0-1.2148-0.86109-1.0988-4.0997 0.5523-5.1397 2.6204-9.5474 2.6162-15.34-0.01461zm17.231-11.151c5.0207-5.0207 1.3961-14.36-5.5733-14.36-3.9536 0-8.7867 4.2654-8.7867 7.7547 0 2.6421 1.9387 6.7561 3.7554 7.9691 2.4177 1.6144 8.3951 0.84561 10.605-1.3638zm33.171 11.506c-15.673-6.798-16.104-27.81-0.7134-34.799 6.1063-2.773 12.428-2.6446 18.332 0.37213 6.1938 3.1649 8.9536 6.988 9.6769 13.405l0.5745 5.0969h-13.399c-8.7473 0-13.399 0.4087-13.399 1.1772 0 5.4105 7.2279 7.9464 13.783 4.8358 3.7798-1.7936 4.3142-1.8019 7.8397-0.12066 2.0809 0.9923 3.7834 2.2163 3.7834 2.72 0 1.7269-6.0753 6.5516-9.8302 7.8065-5.1211 1.7115-12.035 1.5063-16.648-0.49421zm14.36-24.7c-0.63218-1.1812-1.7155-2.4975-2.4073-2.9251-2.0513-1.2678-7.8307-0.7035-8.8231 0.86142-2.1388 3.3726-1.0008 4.2114 5.7133 4.2114 6.2606 0 6.5965-0.13078 5.5171-2.1477zm-249.95 24.583c-1.0632-0.27784-1.9331-0.6871-1.9331-0.90947 0-2.1212 22.705-55.558 24.049-56.599 1.5414-1.1944 10.713-1.2722 11.82-0.10023 0.1964 0.20799 4.2033 9.8226 8.9043 21.366 4.701 11.543 9.9018 24.306 11.557 28.361l3.0102 7.3737-5.2726 0.72517c-6.8053 0.93596-9.0918-0.3774-11.462-6.5835l-1.9182-5.0228h-22.578l-1.9464 5.4129c-2.2908 6.3704-6.2923 8.0509-14.231 5.9764zm33.414-24.497c0-1.3012-4.5916-12.62-5.5908-13.782-0.44061-0.51231-1.8055 1.7245-3.0331 4.9707-1.2276 3.2462-2.5765 6.7721-2.9976 7.8353-0.67419 1.7022-0.026 1.9331 5.4279 1.9331 3.4065 0 6.1936-0.43079 6.1936-0.95731z" fill="#fff" stroke-width="1.1046"/>
 </g>
</svg>
